<svg xmlns="http://www.w3.org/2000/svg" viewBox="0 0 475.44 33.45"><defs><style>.cls-1{fill:#968e6f;fill-rule:evenodd;}</style></defs><g id="图层_2" data-name="图层 2"><g id="图层_1-2" data-name="图层 1"><path class="cls-1" d="M59.73,10a6.74,6.74,0,0,0-6,3.72c-7.61-1.46-14-5.08-18.06-13.42A.52.52,0,0,0,35.07,0a.5.5,0,0,0-.41.47c-.36,5,2,11.43,6,14.64a2.06,2.06,0,0,1,0,3.21c-4,3.21-6.34,9.61-6,14.64a.5.5,0,0,0,.41.47.52.52,0,0,0,.57-.28c4-8.34,10.45-12,18.06-13.42a6.74,6.74,0,1,0,6-9.75ZM32.81,16.17a1.18,1.18,0,0,0-.32-.31,1.08,1.08,0,0,0-.24-.12l-.09,0A26.17,26.17,0,0,1,25,13a15.78,15.78,0,0,1-4.89-4.07,1,1,0,0,0-1.45-.21l-.11.09a26.49,26.49,0,0,1-8,5A34.12,34.12,0,0,1,1,15.7,1,1,0,0,0,0,16.81a1,1,0,0,0,1,.94,34.12,34.12,0,0,1,9.58,1.86,26.82,26.82,0,0,1,8.06,5.08,1,1,0,0,0,1.45-.1l.05-.06A15.67,15.67,0,0,1,25,20.46a26.11,26.11,0,0,1,7.19-2.73l.08,0a1.08,1.08,0,0,0,.24-.12,1.18,1.18,0,0,0,.32-.31,1.12,1.12,0,0,0,.11-.25,1.06,1.06,0,0,0,0-.61A1.12,1.12,0,0,0,32.81,16.17Zm441.68-.47a34.12,34.12,0,0,1-9.58-1.86,26.51,26.51,0,0,1-8.05-5.09,1,1,0,0,0-1.46.11l0,.06A15.78,15.78,0,0,1,450.47,13a26.3,26.3,0,0,1-7.2,2.73l-.07,0a1,1,0,0,0-.25.12,1,1,0,0,0-.31.31,1.15,1.15,0,0,0-.12.25,1.06,1.06,0,0,0,0,.61,1.15,1.15,0,0,0,.12.25,1,1,0,0,0,.31.31,1,1,0,0,0,.25.12l.08,0a26.36,26.36,0,0,1,7.19,2.73,16,16,0,0,1,4.89,4.07,1,1,0,0,0,1.44.21l.11-.09a26.61,26.61,0,0,1,8-5,34.12,34.12,0,0,1,9.58-1.86,1,1,0,0,0,.95-1.11A1,1,0,0,0,474.49,15.7ZM440.79.48a.52.52,0,0,0-.42-.47.5.5,0,0,0-.56.28c-4.06,8.34-10.46,12-18.07,13.42a6.74,6.74,0,1,0,0,6c7.61,1.46,14,5.08,18.07,13.42a.52.52,0,0,0,1-.19c.35-5-2-11.43-6-14.64a2.07,2.07,0,0,1,0-3.21C438.78,11.91,441.14,5.51,440.79.48Z"/></g></g></svg>