<svg xmlns="http://www.w3.org/2000/svg" viewBox="0 0 948.97 438"><defs><style>.cls-1{fill:#b5bc9b;fill-rule:evenodd;}</style></defs><g id="图层_2" data-name="图层 2"><g id="图层_1-2" data-name="图层 1"><path class="cls-1" d="M41.24,32.46H168.09c3.07,0,5.85,0,8.87.2,16.43,1,29,5.05,37.31,12a3.85,3.85,0,0,0,2.32.77,4.34,4.34,0,0,0,2.12-.51c11.46-6.78,29.54-11.76,45-12.4,1.47-.06,3-.07,4.43-.07h4.21c1.66,0,3-.88,3-2s-1.36-2-3-2H41.16c-6.41.1-14.35.9-19,6.14-2.52,2.85-3,6.27-1.29,9.37,1.28,2.36,3.92,4.26,7.41,5.34a21.72,21.72,0,0,0,11.07.37,14.89,14.89,0,0,0,5.67-2.68c1.39-1.12,2.5-2.85,1.47-4.33a4.14,4.14,0,0,0-2.46-1.47c-2.19-.53-4.79.24-5.6,1.67a2,2,0,0,0,.34,2.43l.1.11a7.5,7.5,0,0,1-1.54.57,12.65,12.65,0,0,1-6.44-.22,7.14,7.14,0,0,1-4.32-3.11,5.13,5.13,0,0,1,.85-6.1C29.88,33.86,34.14,32.58,41.24,32.46Zm197.42,0A102,102,0,0,0,217,40.67a55.43,55.43,0,0,0-17.11-8.21Zm648.28,14.4c-.82-1.41-3.42-2.18-5.61-1.66a4.19,4.19,0,0,0-2.46,1.48c-1.29,1.85.8,3.78,1.47,4.33A15.14,15.14,0,0,0,886,53.68a21.62,21.62,0,0,0,11.07-.37c3.49-1.08,6.13-3,7.41-5.34,1.7-3.1,1.23-6.52-1.29-9.37-4.61-5.24-12.56-6-19-6.14H653.08c-1.66,0-3,.88-3,2s1.36,2,3,2h4.41c1.4,0,2.83,0,4.23.07,15.44.64,33.52,5.63,45,12.41a4,4,0,0,0,2,.51H709a3.78,3.78,0,0,0,2.14-.76c8.33-7,20.88-11,37.31-12,3-.18,5.8-.2,8.87-.2h126.8c7.14.12,11.41,1.41,13.84,4.17a5.11,5.11,0,0,1,.83,6.1,7.16,7.16,0,0,1-4.31,3.11,12.61,12.61,0,0,1-6.43.21,8.14,8.14,0,0,1-1.55-.56l.11-.12A2,2,0,0,0,886.94,46.86ZM708.38,44.61a101.53,101.53,0,0,0-21.63-8.22h38.74A55.78,55.78,0,0,0,708.38,44.61Zm185.45-32.7c14.67.24,23.56,3,28.84,9a14.84,14.84,0,0,1,2.07,3,.8.8,0,0,0,.78.37.89.89,0,0,0,.79-.36c2.6-4.76,1.87-10-2-14.38C917.15,1.41,904.39.17,894.05,0H41C30.66.17,17.9,1.41,10.73,9.56c-3.87,4.38-4.59,9.62-2,14.38a.88.88,0,0,0,.78.36.75.75,0,0,0,.79-.37,14.45,14.45,0,0,1,2.07-3c5.27-6,14.17-8.77,28.81-9Zm-228,402.79H897c6.4-.11,14.35-.9,18.95-6.14,2.53-2.85,3-6.27,1.3-9.37-1.29-2.37-3.92-4.26-7.42-5.35a21.71,21.71,0,0,0-11.07-.37,15.19,15.19,0,0,0-5.67,2.68c-1.38,1.13-2.49,2.85-1.46,4.33A4.12,4.12,0,0,0,894,402c2.19.52,4.79-.25,5.61-1.67a2,2,0,0,0-.34-2.43l-.11-.12a8.14,8.14,0,0,1,1.55-.56,12.54,12.54,0,0,1,6.44.22,7.13,7.13,0,0,1,4.32,3.11,5.12,5.12,0,0,1-.85,6.09c-2.43,2.76-6.69,4-13.78,4.16H770c-3.07,0-5.86,0-8.87-.2-16.43-1-29-5-37.32-12a3.82,3.82,0,0,0-2.32-.76,4.22,4.22,0,0,0-2.11.51c-11.47,6.77-29.54,11.76-45,12.39-1.46.06-3,.08-4.42.08h-4.21c-1.67,0-3,.89-3,2S664.12,414.7,665.79,414.7Zm55.29-12.15a55.66,55.66,0,0,0,17.11,8.21H699.45A101.54,101.54,0,0,0,721.08,402.55ZM53.92,410.76H285c1.67,0,3-.88,3-2s-1.36-2-3-2h-4.4c-1.41,0-2.83,0-4.23-.08-15.45-.64-33.53-5.62-45-12.41a4.09,4.09,0,0,0-2-.5h-.3a3.68,3.68,0,0,0-2.14.75c-8.33,7-20.89,11-37.31,12-3,.19-5.81.2-8.88.2H54c-7.14-.12-11.41-1.4-13.84-4.16a5.11,5.11,0,0,1-.84-6.1,7.15,7.15,0,0,1,4.31-3.11,12.43,12.43,0,0,1,6.44-.21,7.15,7.15,0,0,1,1.55.56l-.12.12a2,2,0,0,0-.33,2.43c.82,1.42,3.42,2.18,5.62,1.66a4.14,4.14,0,0,0,2.45-1.48c1.29-1.85-.79-3.78-1.47-4.32a15,15,0,0,0-5.67-2.68,21.62,21.62,0,0,0-11.07.37c-3.49,1.08-6.13,3-7.42,5.35-1.7,3.1-1.23,6.51,1.29,9.36C39.51,409.86,47.47,410.66,53.92,410.76Zm175.81-12.14a101.84,101.84,0,0,0,21.64,8.21H212.62A55.43,55.43,0,0,0,229.73,398.62Zm704.62,30.2a1.58,1.58,0,0,0-.78-.14,1.38,1.38,0,0,0-.8.14,9.69,9.69,0,0,1-2.06,1.15c-5.27,2.3-14.17,3.37-28.82,3.46H49.26c-14.67-.09-23.56-1.16-28.84-3.46a9.79,9.79,0,0,1-2.07-1.15,1.6,1.6,0,0,0-.79-.14,1.58,1.58,0,0,0-.78.14c-2.6,1.82-1.87,3.83,2,5.51,7.17,3.13,19.93,3.6,30.27,3.67H902.12c10.31-.07,23.07-.54,30.24-3.67C936.23,432.65,937,430.64,934.35,428.82ZM12,108.55c-3.5-5.68-4.33-14-4.33-21.25a1.5,1.5,0,1,0-3,0c0,7.2-.83,15.57-4.33,21.25a2.44,2.44,0,0,0,0,2.68,25.1,25.1,0,0,1,4.29,13.5,4.69,4.69,0,0,0-3.19,4.44,4.69,4.69,0,0,0,3.19,4.45v79.24A8.56,8.56,0,0,0,2.42,217a25.91,25.91,0,0,0,0,13.54,8.52,8.52,0,0,0,2.29,4.12v79.24a4.69,4.69,0,0,0-2.29,1.69,4.68,4.68,0,0,0,0,5.52,4.69,4.69,0,0,0,2.29,1.69A25.07,25.07,0,0,1,.42,336.28a2.44,2.44,0,0,0,0,2.68c3.5,5.69,4.33,14.05,4.33,21.26a1.5,1.5,0,1,0,3,0C7.7,353,8.53,344.65,12,339a2.46,2.46,0,0,0,0-2.68A25.07,25.07,0,0,1,7.7,322.79,4.69,4.69,0,0,0,10,321.1a4.68,4.68,0,0,0,0-5.52,4.69,4.69,0,0,0-2.29-1.69V234.65A8.52,8.52,0,0,0,10,230.53a24,24,0,0,0,.9-6.77A23.92,23.92,0,0,0,10,217a8.56,8.56,0,0,0-2.29-4.13V133.62A4.69,4.69,0,0,0,10,126.41a4.61,4.61,0,0,0-2.29-1.68A25.1,25.1,0,0,1,12,111.23,2.46,2.46,0,0,0,12,108.55ZM944.27,322.79a4.73,4.73,0,0,0,2.29-1.69,4.68,4.68,0,0,0,0-5.52,4.73,4.73,0,0,0-2.29-1.69V234.65a8.6,8.6,0,0,0,2.29-4.12,25.91,25.91,0,0,0,0-13.54,8.64,8.64,0,0,0-2.29-4.13V133.62a4.69,4.69,0,0,0,3.19-4.45,4.69,4.69,0,0,0-3.19-4.44,25.17,25.17,0,0,1,4.28-13.5,2.44,2.44,0,0,0,.05-2.68c-3.5-5.68-4.33-14-4.33-21.25a1.5,1.5,0,1,0-3,0c0,7.2-.83,15.57-4.33,21.25a2.44,2.44,0,0,0,0,2.68,25.17,25.17,0,0,1,4.28,13.5,4.69,4.69,0,0,0-2.29,7.21,4.71,4.71,0,0,0,2.29,1.68v79.24A8.64,8.64,0,0,0,939,217a25.91,25.91,0,0,0,0,13.54,8.6,8.6,0,0,0,2.29,4.12v79.24a4.73,4.73,0,0,0-2.29,1.69,4.68,4.68,0,0,0,0,5.52,4.73,4.73,0,0,0,2.29,1.69A25.14,25.14,0,0,1,937,336.28a2.44,2.44,0,0,0,0,2.68c3.5,5.69,4.33,14.05,4.33,21.26a1.5,1.5,0,0,0,3,0c0-7.21.83-15.57,4.33-21.26a2.44,2.44,0,0,0-.05-2.68A25.14,25.14,0,0,1,944.27,322.79Z"/></g></g></svg>