<svg xmlns="http://www.w3.org/2000/svg" viewBox="0 0 24.23 538.71"><defs><style>.cls-1{fill:#b5bc9b;fill-rule:evenodd;}</style></defs><g id="图层_2" data-name="图层 2"><g id="图层_1-2" data-name="图层 1"><path class="cls-1" d="M15,462.71a9.16,9.16,0,0,0,0-17.36V290.63c1.81-1.5,3.37-4.34,4.47-8.05a47,47,0,0,0,1.76-13.22,46.92,46.92,0,0,0-1.76-13.22c-1.1-3.71-2.66-6.56-4.47-8V93.37a9.18,9.18,0,0,0,4.47-3.29,9.15,9.15,0,0,0,0-10.79A9.18,9.18,0,0,0,15,76c0-9.23,3.3-18.68,8.36-26.34a4.79,4.79,0,0,0,.09-5.24C16.66,33.32,15,17,15,2.92a2.93,2.93,0,0,0-5.85,0C9.19,17,7.57,33.32.74,44.42a4.77,4.77,0,0,0,.09,5.24C5.89,57.32,9.19,66.77,9.19,76A9.19,9.19,0,0,0,3,84.69a9.08,9.08,0,0,0,1.76,5.39,9.18,9.18,0,0,0,4.47,3.29V248.09c-1.81,1.49-3.37,4.34-4.47,8a50.53,50.53,0,0,0,0,26.44c1.1,3.71,2.66,6.55,4.47,8.05V445.35a9.17,9.17,0,0,0,0,17.36c0,9.23-3.3,18.68-8.36,26.34a4.79,4.79,0,0,0-.09,5.25c6.83,11.09,8.45,27.42,8.45,41.49a2.93,2.93,0,0,0,5.85,0c0-14.07,1.62-30.4,8.45-41.49a4.81,4.81,0,0,0-.09-5.25C18.34,481.39,15,471.94,15,462.71Z"/></g></g></svg>