<svg xmlns="http://www.w3.org/2000/svg" viewBox="0 0 43 9.54"><defs><style>.cls-1{fill:#5e513e;fill-rule:evenodd;}</style></defs><g id="图层_2" data-name="图层 2"><g id="Myplan-high"><path class="cls-1" d="M43,4.77l-2.69-3.2A1,1,0,0,0,40,0h-.09a.08.08,0,0,0,0,.06c0,.56-.54,1.07-1.52,1.07H4.7c-1,0-1.56-.51-1.52-1.07a.08.08,0,0,0,0-.06H3.05a1,1,0,0,0-.36,1.56L0,4.77,2.69,8a1,1,0,0,0,.36,1.56.1.1,0,0,0,.09,0,.1.1,0,0,0,0-.07c0-.55.54-1.07,1.52-1.07H38.3c1,0,1.56.52,1.52,1.07a.1.1,0,0,0,0,.07.1.1,0,0,0,.09,0A1,1,0,0,0,40.31,8Zm-40.18,0a.68.68,0,0,0-.36.3s0,0,0,0,0,0,0,0A.68.68,0,0,0,2,4.81s0,0,0,0a0,0,0,0,1,0,0,.65.65,0,0,0,.36-.31l0,0,0,0a.65.65,0,0,0,.36.31,0,0,0,0,1,0,0S2.84,4.8,2.82,4.81Zm37.36,0s0,0,0,0a0,0,0,0,1,0,0,.65.65,0,0,0,.36-.31l0,0a.05.05,0,0,1,0,0,.65.65,0,0,0,.36.31,0,0,0,0,1,0,0s0,0,0,0a.68.68,0,0,0-.36.3s0,0,0,0,0,0,0,0A.68.68,0,0,0,40.18,4.81Z"/></g></g></svg>