<svg xmlns="http://www.w3.org/2000/svg" viewBox="0 0 64 46.38"><defs><style>.cls-1{fill:#968e6f;fill-rule:evenodd;}</style></defs><g id="图层_2" data-name="图层 2"><g id="Myplan-high"><path class="cls-1" d="M.11,1.7a1.3,1.3,0,0,0,.79.58,2.25,2.25,0,0,0,1.18,0A1.57,1.57,0,0,0,2.69,2c.14-.12.26-.31.15-.47a.41.41,0,0,0-.26-.17.59.59,0,0,0-.6.19.21.21,0,0,0,0,.26v0l-.16.06a1.34,1.34,0,0,1-.69,0,.76.76,0,0,1-.46-.34A.55.55,0,0,1,.81.89,1.84,1.84,0,0,1,2.28.43H15.82c.33,0,.63,0,.95,0a6.64,6.64,0,0,1,4,1.32.45.45,0,0,0,.24.08.41.41,0,0,0,.23-.06A11,11,0,0,1,26,.44H27c.17,0,.32-.1.32-.21S27.13,0,27,0H2.27a2.66,2.66,0,0,0-2,.67A.88.88,0,0,0,.11,1.7ZM23.36.43a10.4,10.4,0,0,0-2.31.9,5.79,5.79,0,0,0-1.83-.9Z"/><path class="cls-1" d="M63.75.67a2.66,2.66,0,0,0-2-.67H37c-.17,0-.32.1-.32.22s.15.21.32.21H38a11,11,0,0,1,4.8,1.35.41.41,0,0,0,.23.06.45.45,0,0,0,.24-.08,6.64,6.64,0,0,1,4-1.32c.32,0,.62,0,1,0H61.72a1.84,1.84,0,0,1,1.47.46.55.55,0,0,1,.09.66.76.76,0,0,1-.46.34,1.34,1.34,0,0,1-.69,0L62,1.86v0a.21.21,0,0,0,0-.26.59.59,0,0,0-.6-.19.41.41,0,0,0-.26.17c-.11.16,0,.35.15.47a1.57,1.57,0,0,0,.61.29,2.25,2.25,0,0,0,1.18,0,1.3,1.3,0,0,0,.79-.58A.88.88,0,0,0,63.75.67Zm-19-.24a5.79,5.79,0,0,0-1.83.9,10.4,10.4,0,0,0-2.31-.9Z"/><path class="cls-1" d="M62.89,44.69a1.28,1.28,0,0,0-.78-.59,2.17,2.17,0,0,0-1.16,0,1.63,1.63,0,0,0-.59.29c-.15.13-.27.31-.16.48a.45.45,0,0,0,.26.16.57.57,0,0,0,.59-.18.23.23,0,0,0,0-.27h0l.16-.07a1.3,1.3,0,0,1,.68,0,.76.76,0,0,1,.46.34.6.6,0,0,1-.09.67,1.85,1.85,0,0,1-1.45.45H47.42c-.32,0-.61,0-.93,0a6.5,6.5,0,0,1-3.92-1.31.44.44,0,0,0-.25-.09.4.4,0,0,0-.22.06,10.71,10.71,0,0,1-4.73,1.35h-.9c-.18,0-.32.1-.32.22s.14.21.32.21h24.3a2.61,2.61,0,0,0,2-.67A.88.88,0,0,0,62.89,44.69ZM40,46a10.13,10.13,0,0,0,2.28-.9,5.62,5.62,0,0,0,1.8.9Z"/><path class="cls-1" d="M.24,45.71a2.61,2.61,0,0,0,2,.67h24.3c.18,0,.32-.09.32-.21s-.14-.22-.32-.22h-.9a10.71,10.71,0,0,1-4.73-1.35.4.4,0,0,0-.22-.06.44.44,0,0,0-.25.09,6.5,6.5,0,0,1-3.92,1.31c-.32,0-.61,0-.93,0H2.24A1.85,1.85,0,0,1,.79,45.5a.6.6,0,0,1-.09-.67.76.76,0,0,1,.46-.34,1.3,1.3,0,0,1,.68,0l.16.07H2a.23.23,0,0,0,0,.27.57.57,0,0,0,.59.18.45.45,0,0,0,.26-.16c.11-.17,0-.35-.16-.48a1.63,1.63,0,0,0-.59-.29,2.17,2.17,0,0,0-1.16,0,1.28,1.28,0,0,0-.78.59A.88.88,0,0,0,.24,45.71ZM18.92,46a5.62,5.62,0,0,0,1.8-.9A10.13,10.13,0,0,0,23,46Z"/></g></g></svg>