<svg xmlns="http://www.w3.org/2000/svg" viewBox="0 0 346.11 125.04"><defs><style>.cls-1{fill:#b5bc9b;fill-rule:evenodd;}</style></defs><g id="图层_2" data-name="图层 2"><g id="图层_1-2" data-name="图层 1"><path class="cls-1" d="M224.46,50.39C191.39,39,165.1,23.63,144.11,3.56A12.89,12.89,0,0,0,135.21,0a13.05,13.05,0,0,0-6.67,1.86C83,29.51,60.81,38.52,10,50A12.76,12.76,0,0,0,0,62.55c0,6,4.1,11.2,8.82,12.12a5.18,5.18,0,0,0,1.21.45c50.76,11.46,72.91,20.45,118.55,48.17a13.19,13.19,0,0,0,15.5-1.74c21-20,47.31-35.37,80.44-46.85a12.86,12.86,0,0,0-.06-24.31ZM133.63,96.28c-28.16-16.73-47.71-26.16-70.8-33.73,23.09-7.6,42.64-17,70.8-33.73A226.13,226.13,0,0,0,186,62.55,226.82,226.82,0,0,0,133.63,96.28ZM305.36,21.83a40.74,40.74,0,1,0,40.75,40.73A40.76,40.76,0,0,0,305.36,21.83Zm0,55.73a15,15,0,1,1,15-15A15,15,0,0,1,305.36,77.56Z"/></g></g></svg>