<svg xmlns="http://www.w3.org/2000/svg" viewBox="0 0 588.57 175.68"><defs><style>.cls-1{fill:#968e6f;}.cls-2{fill:#5e513e;fill-rule:evenodd;}</style></defs><g id="图层_2" data-name="图层 2"><g id="图层_1-2" data-name="图层 1"><path class="cls-1" d="M231.79,114.46a3,3,0,1,0,4.31-4.31L197.77,71.82a3,3,0,0,0-4.31,4.31ZM102.17,65.23,230,139a3.1,3.1,0,0,0,1.52.41,3.05,3.05,0,0,0,1.53-5.69L105.21,60a3,3,0,1,0-3,5.28ZM236.06,169.59H3.05a3,3,0,1,0,0,6.09h233a3,3,0,1,0,0-6.09Zm118.36-31.67a3,3,0,0,0,4.16,1.11l127.83-73.8A3,3,0,1,0,483.36,60L355.53,133.76A3,3,0,0,0,354.42,137.92ZM238.83,154.63,112.2,120.7a3,3,0,1,0-1.57,5.88l126.63,33.94a3,3,0,0,0,.79.1,3,3,0,0,0,.78-6Zm113.65-40.18a3,3,0,0,0,4.3,0l38.33-38.33a3,3,0,1,0-4.31-4.3l-38.32,38.32A3,3,0,0,0,352.48,114.45Zm-1.16,46.06L478,126.58a3,3,0,0,0-1.58-5.88L349.74,154.63a3,3,0,0,0,.79,6A3.07,3.07,0,0,0,351.32,160.51ZM386.53,12.86A3.05,3.05,0,0,0,382.37,14l-49,84.93a3,3,0,1,0,5.27,3l49-84.93A3,3,0,0,0,386.53,12.86Zm199,156.73h-233a3,3,0,0,0,0,6.09h233a3,3,0,1,0,0-6.09ZM325.83,54.92a3.05,3.05,0,0,0-3.73,2.15l-7.58,28.26a3,3,0,1,0,5.89,1.58L328,58.65A3,3,0,0,0,325.83,54.92Zm-59.36,2.15a3,3,0,1,0-5.88,1.58l7.57,28.27a3,3,0,0,0,5.89-1.58ZM294.29,0a3.06,3.06,0,0,0-3.05,3.05V72.53a3,3,0,1,0,6.09,0V3.05A3,3,0,0,0,294.29,0ZM206.2,14a3,3,0,1,0-5.27,3L250,102a3,3,0,0,0,2.64,1.52,3,3,0,0,0,1.52-.41,3,3,0,0,0,1.12-4.16Z"/><path class="cls-2" d="M333.45,126.38a1.15,1.15,0,0,0-1.12-.81l-27.4.05a1.15,1.15,0,0,1-1.11-.81L295.4,98.73a1.16,1.16,0,0,0-1.11-.81,1.14,1.14,0,0,0-1.11.81l-8.42,26.08a1.16,1.16,0,0,1-1.11.81l-27.41-.05a1.16,1.16,0,0,0-.68,2.11l22.2,16.06a1.18,1.18,0,0,1,.42,1.32l-8.52,26a1.17,1.17,0,0,0,1.8,1.31l22.14-16.15a1.14,1.14,0,0,1,1.38,0l22.13,16.15a1.17,1.17,0,0,0,1.38,0,1.15,1.15,0,0,0,.42-1.31l-8.51-26a1.15,1.15,0,0,1,.42-1.32L333,127.68A1.14,1.14,0,0,0,333.45,126.38Z"/></g></g></svg>